<svg width="13" height="19" viewBox="0 0 13 19" fill="none" xmlns="http://www.w3.org/2000/svg">
<g clip-path="url(#clip0_168_773)">
<path d="M12.2099 11.4333C13.8993 11.4035 14.2711 9.07938 12.6769 8.52588L10.8362 10.5222C11.0659 11.063 11.6074 11.4333 12.2099 11.4333Z" fill="white"/>
<path d="M17.6617 8.41727C17.4251 6.99749 16.7599 5.90165 15.7271 5.2174C15.2461 5.73955 13.9207 7.17644 13.4204 7.71916C14.2252 8.15535 14.7404 9 14.7404 9.94236C14.7461 12.1265 12.1104 13.2864 10.5043 11.8115C10.3512 12.1503 10.1364 12.4621 9.86578 12.7327C8.79333 13.8954 5.47134 14.1765 4.0533 14.1352C4.01186 12.7136 4.29408 9.3932 5.45578 8.32268C6.04853 7.73025 6.82182 7.4264 7.60031 7.41151C8.45224 6.62329 9.63365 5.53005 10.4821 4.74484C9.30359 5.0554 7.57734 5.87761 7.05083 5.10134C6.80443 4.51982 7.92462 3.16854 7.04078 2.03452C6.31645 1.12504 4.69535 1.29588 3.77925 1.94201C-0.681156 5.02162 -1.27758 11.7878 2.6163 15.5518C7.38311 20.3553 15.6984 18.1791 17.5252 11.6698C17.6244 11.2601 17.9083 9.91707 17.6617 8.41727Z" fill="white"/>
<path d="M9.86593 8.32254C10.1556 8.61217 10.3811 8.94858 10.5356 9.31479C11.1256 8.67582 14.2407 5.29618 14.7579 4.73568L17.5236 1.73607C17.8257 1.40833 17.8337 0.923289 17.542 0.631227C17.2496 0.339165 16.7639 0.34748 16.4361 0.650628L12.3912 4.39408C11.513 5.20662 9.76608 6.82388 8.86987 7.65319C9.23227 7.80493 9.57145 8.02805 9.86593 8.32254Z" fill="white"/>
<path d="M8.57616 8.66041C7.78704 8.2764 6.83075 8.41904 6.19081 9.05676C5.52985 9.64116 5.15457 11.8652 5.11646 13.0715C6.32621 13.0322 8.54491 12.6591 9.13083 11.9971C9.52371 11.6042 9.7399 11.0821 9.7399 10.5271C9.7398 9.97133 9.52337 9.44919 9.13083 9.0571V9.05676C8.96453 8.89011 8.77676 8.75811 8.57616 8.66041Z" fill="white"/>
</g>
<defs>
<clipPath id="clip0_168_773">
<rect width="17.7335" height="17.7335" fill="white" transform="translate(0.0283203 0.417725)"/>
</clipPath>
</defs>
</svg>
