<svg width="25" height="24" viewBox="0 0 25 24" fill="none" xmlns="http://www.w3.org/2000/svg">
<path opacity="0.3" d="M12.4801 13.0931C13.0994 13.0931 13.6014 12.6017 13.6014 11.9955C13.6014 11.3894 13.0994 10.898 12.4801 10.898C11.8609 10.898 11.3589 11.3894 11.3589 11.9955C11.3589 12.6017 11.8609 13.0931 12.4801 13.0931Z" fill="#B8B7C7"/>
<path d="M12.48 2.48343C7.12178 2.48343 2.76245 6.75061 2.76245 11.9955C2.76245 17.2405 7.12178 21.5076 12.48 21.5076C17.8381 21.5076 22.1975 17.2405 22.1975 11.9955C22.1975 6.75061 17.8381 2.48343 12.48 2.48343ZM17.3887 7.66615L15.1985 13.0259C15.0481 13.394 14.8229 13.7283 14.5365 14.0086C14.2502 14.289 13.9086 14.5094 13.5325 14.6566L8.05709 16.8005C7.98917 16.8271 7.91476 16.8336 7.84309 16.8193C7.77142 16.8049 7.70565 16.7702 7.65392 16.7196C7.60218 16.6689 7.56677 16.6045 7.55207 16.5344C7.53737 16.4642 7.54402 16.3914 7.57121 16.3249L9.76139 10.9652C9.91177 10.5971 10.137 10.2628 10.4234 9.98242C10.7098 9.70209 11.0513 9.48164 11.4274 9.33443L16.9028 7.19055C16.9707 7.16394 17.0451 7.15742 17.1168 7.17181C17.1885 7.1862 17.2543 7.22087 17.306 7.27151C17.3577 7.32214 17.3931 7.38653 17.4078 7.45668C17.4225 7.52684 17.4159 7.59967 17.3887 7.66615Z" fill="#B8B7C7"/>
</svg>
