<svg width="26" height="24" viewBox="0 0 26 24" fill="none" xmlns="http://www.w3.org/2000/svg">
<path d="M12.9233 2.28943C7.30964 2.28943 2.74243 6.61834 2.74243 11.9391C2.74243 17.2599 7.30964 21.5889 12.9233 21.5889C18.537 21.5889 23.1042 17.2599 23.1042 11.9391C23.1042 6.61834 18.537 2.28943 12.9233 2.28943ZM14.4896 16.3929H11.357C11.1493 16.3929 10.9501 16.3146 10.8033 16.1754C10.6564 16.0362 10.5739 15.8474 10.5739 15.6506C10.5739 15.4537 10.6564 15.2649 10.8033 15.1257C10.9501 14.9865 11.1493 14.9083 11.357 14.9083H14.4896C14.6973 14.9083 14.8965 14.9865 15.0434 15.1257C15.1902 15.2649 15.2728 15.4537 15.2728 15.6506C15.2728 15.8474 15.1902 16.0362 15.0434 16.1754C14.8965 16.3146 14.6973 16.3929 14.4896 16.3929ZM16.839 13.4237H9.00759C8.79989 13.4237 8.60069 13.3455 8.45383 13.2063C8.30696 13.0671 8.22445 12.8783 8.22445 12.6814C8.22445 12.4846 8.30696 12.2958 8.45383 12.1565C8.60069 12.0173 8.79989 11.9391 9.00759 11.9391H16.839C17.0467 11.9391 17.2459 12.0173 17.3928 12.1565C17.5397 12.2958 17.6222 12.4846 17.6222 12.6814C17.6222 12.8783 17.5397 13.0671 17.3928 13.2063C17.2459 13.3455 17.0467 13.4237 16.839 13.4237ZM18.4053 10.4546H7.4413C7.2336 10.4546 7.0344 10.3764 6.88754 10.2372C6.74067 10.098 6.65816 9.90915 6.65816 9.71228C6.65816 9.51542 6.74067 9.32661 6.88754 9.18741C7.0344 9.0482 7.2336 8.97 7.4413 8.97H18.4053C18.613 8.97 18.8122 9.0482 18.9591 9.18741C19.106 9.32661 19.1885 9.51542 19.1885 9.71228C19.1885 9.90915 19.106 10.098 18.9591 10.2372C18.8122 10.3764 18.613 10.4546 18.4053 10.4546Z" fill="#F5F5F5"/>
</svg>
