<svg width="25" height="22" viewBox="0 0 25 22" fill="none" xmlns="http://www.w3.org/2000/svg">
<path d="M5.47055 13.75C5.47055 9.75391 11.5252 6.66016 10.1581 2.0625C13.3807 2.0625 19.533 6.1875 19.533 13.75C19.533 15.391 18.7923 16.9648 17.4736 18.1252C16.155 19.2856 14.3666 19.9375 12.5018 19.9375C10.637 19.9375 8.84857 19.2856 7.52996 18.1252C6.21134 16.9648 5.47055 15.391 5.47055 13.75V13.75Z" stroke="#615BC9" stroke-width="1.00189" stroke-linecap="round" stroke-linejoin="round"/>
<path d="M15.6272 15.8134C15.6272 18.2935 14.0644 19.2514 12.5017 19.2514C10.939 19.2514 9.37628 18.2935 9.37628 15.8134C9.37628 13.3333 11.3297 12.1176 10.939 10.3126C12.9901 10.3126 15.6272 13.3333 15.6272 15.8134Z" stroke="#615BC9" stroke-width="1.00189" stroke-linecap="round" stroke-linejoin="round"/>
</svg>
