<svg width="18" height="19" viewBox="0 0 18 19" fill="none" xmlns="http://www.w3.org/2000/svg">
<g clip-path="url(#clip0_168_758)">
<path d="M17.4673 15.8941L10.5351 8.96181L2.43595 0.862671H1.803L1.67375 1.19108C1.33264 2.0579 1.18689 2.94446 1.25233 3.75483C1.32691 4.67855 1.67783 5.47828 2.2672 6.06765L8.58983 12.3903L9.42377 11.5563L15.269 18.0924C15.8505 18.6739 16.8513 18.7084 17.4673 18.0924C18.0734 17.4863 18.0734 16.5002 17.4673 15.8941Z" fill="white"/>
<path d="M5.65957 10.9268L0.707715 15.8786C0.10166 16.4847 0.10166 17.4708 0.707715 18.0769C1.28345 18.6526 2.27944 18.7035 2.90601 18.0769L7.85789 13.125L5.65957 10.9268Z" fill="white"/>
<path d="M17.1762 3.80598L14.3673 6.61492L13.6344 5.88215L16.4434 3.07317L15.7106 2.3404L12.9017 5.14934L12.1689 4.41656L14.9779 1.60762L14.2452 0.874878L10.5813 4.53876C10.1331 4.98698 9.86542 5.58212 9.82758 6.21463C9.81801 6.37488 9.78169 6.5325 9.72144 6.68243L12.1015 9.06248C12.2514 9.00216 12.4091 8.96587 12.5693 8.95631C13.2018 8.91857 13.7969 8.65086 14.2452 8.20264L17.909 4.53879L17.1762 3.80598Z" fill="white"/>
</g>
<defs>
<clipPath id="clip0_168_758">
<rect width="17.6789" height="17.6789" fill="white" transform="translate(0.247803 0.863037)"/>
</clipPath>
</defs>
</svg>
