<svg width="31" height="31" viewBox="0 0 31 31" fill="none" xmlns="http://www.w3.org/2000/svg">
<path d="M13.5616 18.4071C13.3701 18.407 13.1829 18.3502 13.0237 18.2437C12.8644 18.1372 12.7403 17.986 12.6671 17.809C12.5938 17.6321 12.5746 17.4373 12.6119 17.2495C12.6493 17.0616 12.7415 16.8891 12.8769 16.7536L22.4396 7.1908C21.9447 6.92208 21.3904 6.78158 20.8273 6.78211H6.29602C5.39707 6.78307 4.53521 7.1406 3.89955 7.77626C3.26389 8.41192 2.90636 9.27378 2.9054 10.1727V24.704C2.90636 25.6029 3.26389 26.4648 3.89955 27.1005C4.53521 27.7361 5.39707 28.0936 6.29602 28.0946H20.8273C21.7262 28.0936 22.5881 27.7361 23.2237 27.1005C23.8594 26.4648 24.2169 25.6029 24.2179 24.704V10.1727C24.2184 9.60958 24.0779 9.05527 23.8092 8.56037L14.2464 18.1231C14.1567 18.2133 14.05 18.2849 13.9324 18.3336C13.8149 18.3823 13.6889 18.4073 13.5616 18.4071Z" fill="#615BC9"/>
<path d="M27.1255 2.90796H20.3433C20.0863 2.90796 19.8399 3.01004 19.6582 3.19174C19.4765 3.37344 19.3744 3.61988 19.3744 3.87685C19.3744 4.13381 19.4765 4.38025 19.6582 4.56195C19.8399 4.74366 20.0863 4.84574 20.3433 4.84574H24.7862L22.4403 7.19226C23.0196 7.50694 23.4954 7.9827 23.8101 8.56203L26.1566 6.21611V10.6591C26.1566 10.916 26.2587 11.1625 26.4404 11.3442C26.6221 11.5259 26.8685 11.628 27.1255 11.628C27.3825 11.628 27.6289 11.5259 27.8106 11.3442C27.9923 11.1625 28.0944 10.916 28.0944 10.6591V3.87685C28.0944 3.61988 27.9923 3.37344 27.8106 3.19174C27.6289 3.01004 27.3825 2.90796 27.1255 2.90796Z" fill="#615BC9"/>
</svg>
