<svg width="16" height="18" viewBox="0 0 16 18" fill="none" xmlns="http://www.w3.org/2000/svg">
<path d="M14 7.7287C14 11.2712 10.8216 14.4453 9.09142 15.9107C8.45352 16.451 7.54648 16.451 6.90857 15.9107C5.17844 14.4453 2 11.2712 2 7.7287C2 6.06904 2.63214 4.47736 3.75736 3.3038C4.88258 2.13024 6.4087 1.47095 8 1.47095C9.5913 1.47095 11.1174 2.13024 12.2426 3.3038C13.3679 4.47736 14 6.06904 14 7.7287Z" fill="#716E90"/>
<path d="M8 9.81466C9.10457 9.81466 10 8.88076 10 7.72874C10 6.57672 9.10457 5.64282 8 5.64282C6.89543 5.64282 6 6.57672 6 7.72874C6 8.88076 6.89543 9.81466 8 9.81466Z" fill="white"/>
</svg>
