<svg width="19" height="19" viewBox="0 0 19 19" fill="none" xmlns="http://www.w3.org/2000/svg">
<g clip-path="url(#clip0_168_736)">
<path d="M6.47493 3.74552V12.599C5.91128 12.0861 5.16269 11.7732 4.34253 11.7732C2.59356 11.7732 1.17065 13.1961 1.17065 14.945C1.17065 16.694 2.59356 18.1169 4.34253 18.1169C6.08933 18.1169 7.51062 16.6975 7.51427 14.9517H7.5144V8.62524L16.6233 5.88793V10.4651C16.0597 9.95236 15.3111 9.63928 14.4909 9.63928C12.742 9.63928 11.3191 11.0622 11.3191 12.8112C11.3191 14.5601 12.742 15.983 14.4909 15.983C16.2339 15.983 17.6529 14.5697 17.6625 12.8289H17.6628V0.383423L6.47493 3.74552Z" fill="white"/>
</g>
<defs>
<clipPath id="clip0_168_736">
<rect width="17.7335" height="17.7335" fill="white" transform="translate(0.547119 0.417725)"/>
</clipPath>
</defs>
</svg>
