<svg width="19" height="19" viewBox="0 0 19 19" fill="none" xmlns="http://www.w3.org/2000/svg">
<g clip-path="url(#clip0_168_744)">
<path d="M8.80489 2.79151C8.68918 2.02952 8.45518 1.25819 8.11433 0.504517C6.34431 0.753408 4.7422 1.52471 3.46875 2.65778L7.86817 7.05724C8.72772 5.9641 9.05995 4.47103 8.80489 2.79151Z" fill="white"/>
<path d="M7.87264 8.53003C6.82193 9.39758 5.4701 9.85083 3.95129 9.85086C3.5489 9.85086 3.13493 9.81907 2.71161 9.75482C1.97207 9.64249 1.22661 9.4318 0.495034 9.1312C0.494238 9.1816 0.493164 9.23196 0.493164 9.28256C0.493164 11.5441 1.34032 13.6074 2.73395 15.1738L8.62517 9.28256L7.87264 8.53003Z" fill="white"/>
<path d="M7.13329 7.79041L2.73383 3.39099C1.60076 4.66444 0.829458 6.26651 0.580566 8.03653C1.33427 8.37738 2.10564 8.61145 2.86752 8.72717C4.54715 8.98226 6.04019 8.64997 7.13329 7.79041Z" fill="white"/>
<path d="M15.8522 9.83825C14.1726 9.58312 12.6795 9.91542 11.5864 10.775L15.9858 15.1744C17.1189 13.9009 17.8902 12.2989 18.1391 10.5288C17.3855 10.188 16.6142 9.954 15.8522 9.83825Z" fill="white"/>
<path d="M10.1123 10.7708L9.35996 10.0184L3.46875 15.9096C5.03508 17.3033 7.09843 18.1504 9.35996 18.1504C9.41057 18.1504 9.46093 18.1494 9.51132 18.1485C9.21075 17.417 9.00003 16.6715 8.88771 15.932C8.58083 13.9109 9.01492 12.0998 10.1123 10.7708Z" fill="white"/>
<path d="M8.60742 7.79591L9.35978 8.54826L15.251 2.65705C13.6847 1.26338 11.6213 0.41626 9.35978 0.41626C9.30918 0.41626 9.25881 0.417333 9.20842 0.418165C9.50899 1.1497 9.71971 1.8951 9.83204 2.63474C10.1389 4.65577 9.70482 6.46687 8.60742 7.79591Z" fill="white"/>
<path d="M9.91476 15.7752C10.0304 16.5371 10.2645 17.3085 10.6054 18.0622C12.3754 17.8133 13.9775 17.042 15.2509 15.909L10.8514 11.5095C9.99193 12.6027 9.6597 14.0957 9.91476 15.7752Z" fill="white"/>
<path d="M10.8471 10.0346C12.1761 8.93716 13.9872 8.50311 16.0082 8.80998C16.7479 8.92231 17.4933 9.13306 18.2248 9.4336C18.2257 9.3832 18.2267 9.33284 18.2267 9.28221C18.2267 7.02067 17.3796 4.95732 15.9859 3.39099L10.0947 9.28224L10.8471 10.0346Z" fill="white"/>
</g>
<defs>
<clipPath id="clip0_168_744">
<rect width="17.7335" height="17.7335" fill="white" transform="translate(0.493164 0.417725)"/>
</clipPath>
</defs>
</svg>
